<svg width="109" height="40" viewBox="0 0 109 40" fill="none" xmlns="http://www.w3.org/2000/svg">
<path d="M4.73537 0.127441H0V16.8917H4.73537V0.127441Z" fill="#ED1846"/>
<path d="M12.4373 8.65187V16.8917H7.69897V0.127441H11.3932L18.3144 8.65187V0.127441H23.0527V16.8917H19.2875L12.4373 8.65187Z" fill="#ED1846"/>
<path d="M26.0283 16.8917V0.127441H32.6596C34.5703 0.127441 36.1695 0.501194 37.4571 1.2487C38.709 1.96011 39.7212 3.00992 40.3705 4.27035C41.0369 5.57987 41.3744 7.02428 41.3554 8.48513C41.3942 10.0307 41.0213 11.5599 40.2729 12.9241C39.5744 14.1657 38.5202 15.1834 37.2382 15.8538C35.8271 16.5712 34.2516 16.9283 32.6596 16.8917H26.0283ZM36.5461 8.48513C36.5633 7.70263 36.4059 6.9258 36.0847 6.20811C35.802 5.58397 35.3372 5.05417 34.7478 4.68435C34.1206 4.31042 33.3951 4.12165 32.6596 4.14097H30.7607V12.8781H32.6567C33.4005 12.898 34.1329 12.6974 34.7567 12.3031C35.3421 11.915 35.8025 11.3738 36.0847 10.742C36.4016 10.0301 36.5589 9.26074 36.5461 8.48513Z" fill="#ED1846"/>
<path d="M51.1693 17.0095C49.9465 17.0237 48.7352 16.7784 47.62 16.2908C46.5776 15.8295 45.6405 15.1707 44.8633 14.353C44.1015 13.5561 43.4997 12.6278 43.0887 11.616C42.6771 10.6098 42.4673 9.53633 42.4705 8.45349C42.4666 7.35888 42.6889 6.27465 43.1242 5.26509C43.5601 4.26274 44.1817 3.34671 44.958 2.56257C45.7527 1.76318 46.7028 1.12506 47.7531 0.685184C48.8744 0.219992 50.0832 -0.0130419 51.3024 0.000929409C52.4896 -0.016539 53.667 0.212415 54.756 0.672504C55.845 1.13259 56.8204 1.81322 57.6172 2.66895C58.374 3.47496 58.9752 4.407 59.3918 5.42034C59.7995 6.41565 60.0092 7.47708 60.01 8.54837C60.0122 9.6336 59.793 10.7085 59.3652 11.7109C58.9385 12.7152 58.3203 13.6322 57.5432 14.4134C56.7518 15.2129 55.8073 15.8545 54.7629 16.3023C53.6443 16.777 52.4342 17.0142 51.2136 16.998M47.271 8.51099C47.2687 9.06585 47.3505 9.61801 47.5135 10.1497C47.6671 10.6606 47.9135 11.1407 48.2411 11.5671C48.5668 11.9847 48.9867 12.324 49.4686 12.559C50.0238 12.8035 50.6263 12.9299 51.2358 12.9299C51.8454 12.9299 52.4479 12.8035 53.0031 12.559C53.4945 12.3123 53.916 11.9519 54.2306 11.5096C54.5479 11.073 54.786 10.5868 54.9345 10.0721C55.0881 9.54556 55.1657 9.00082 55.1652 8.45349C55.1666 7.90247 55.0849 7.35421 54.9227 6.82623C54.7673 6.31902 54.5199 5.8429 54.1921 5.42034C53.8627 5.00334 53.4345 4.66995 52.9439 4.44859C52.3954 4.20325 51.7966 4.08233 51.1929 4.09496C50.5786 4.07761 49.9693 4.20692 49.4183 4.47159C48.9455 4.71515 48.5335 5.0567 48.2115 5.47209C47.8837 5.8968 47.6409 6.3776 47.4957 6.88948C47.3422 7.41605 47.2645 7.96079 47.265 8.50812" fill="#ED1846"/>
<path d="M0 30.3493C0.0004 29.3186 0.201099 28.2974 0.591499 27.3391C0.993399 26.3471 1.5834 25.4372 2.3307 24.6567C3.115 23.8392 4.0619 23.1849 5.1139 22.7333C6.2809 22.2379 7.5437 21.9918 8.817 22.0117C10.3235 21.9766 11.8136 22.3223 13.1413 23.0151C14.3043 23.62 15.2588 24.5437 15.8861 25.6716L12.2658 28.1758C12.0923 27.6751 11.7765 27.2325 11.3548 26.8992C10.977 26.6099 10.5436 26.3968 10.08 26.2725C9.64 26.1578 9.1867 26.0989 8.7313 26.0971C8.1155 26.0791 7.5051 26.2126 6.9566 26.4852C6.4765 26.7346 6.0609 27.0865 5.741 27.5145C5.4294 27.9441 5.1963 28.4226 5.0518 28.929C4.9002 29.4354 4.8225 29.9599 4.8211 30.4873C4.8188 31.057 4.9086 31.6236 5.0873 32.1663C5.2568 32.6865 5.5202 33.1733 5.8652 33.6038C6.2012 34.017 6.6289 34.3511 7.1163 34.5813C7.6359 34.8225 8.2058 34.9436 8.7815 34.9349C9.2338 34.9327 9.6832 34.8659 10.1155 34.7365C10.5649 34.6012 10.9821 34.3803 11.343 34.0868C11.7313 33.7654 12.0252 33.3497 12.1948 32.8821L16.0576 35.1247C15.7011 35.9643 15.1125 36.6917 14.3569 37.2263C13.543 37.8178 12.6305 38.2691 11.6594 38.5603C10.6938 38.8617 9.6863 39.0169 8.6721 39.0203C7.4591 39.0346 6.2587 38.781 5.1612 38.2786C4.1222 37.7973 3.1898 37.1234 2.4164 36.2948C1.6589 35.4763 1.0579 34.5329 0.6418 33.5089C0.2263 32.5034 0.0124989 31.43 0.0117989 30.3464" fill="#0F385A"/>
<path d="M25.2385 39.0117C24.0087 39.0287 22.7901 38.7834 21.6685 38.2929C20.6262 37.8316 19.689 37.1728 18.9119 36.3551C18.1501 35.5582 17.5482 34.6299 17.1372 33.6181C16.7256 32.6119 16.5158 31.5384 16.519 30.4556C16.5182 29.3635 16.7425 28.2823 17.1786 27.2758C17.6146 26.2735 18.2361 25.3575 19.0124 24.5733C19.8072 23.7739 20.7572 23.1358 21.8075 22.6959C22.9225 22.2335 24.1239 22.0005 25.3361 22.0117C26.5234 21.9942 27.7008 22.2232 28.7897 22.6832C29.8787 23.1433 30.8541 23.824 31.6509 24.6797C32.4088 25.4849 33.0101 26.4172 33.4256 27.4311C33.8312 28.4268 34.039 29.4882 34.0378 30.5591C34.04 31.6443 33.8209 32.7192 33.393 33.7216C32.9663 34.726 32.3481 35.6429 31.5711 36.4241C30.7796 37.2236 29.8352 37.8653 28.7908 38.313C27.6721 38.7878 26.462 39.025 25.2415 39.0088M21.3195 30.5131C21.3173 31.068 21.399 31.6201 21.562 32.1519C21.7156 32.6627 21.962 33.1428 22.2896 33.5692C22.6153 33.9868 23.0352 34.3261 23.5171 34.5611C24.0743 34.8077 24.6795 34.9353 25.2917 34.9353C25.904 34.9353 26.5092 34.8077 27.0664 34.5611C27.5557 34.3136 27.9751 33.9533 28.288 33.5117C28.6053 33.0751 28.8434 32.5889 28.9919 32.0742C29.1455 31.5477 29.2231 31.0029 29.2226 30.4556C29.224 29.9046 29.1423 29.3563 28.9801 28.8283C28.8247 28.3211 28.5773 27.845 28.2495 27.4225C27.9245 27.0038 27.5004 26.6674 27.0132 26.4421C26.4646 26.1967 25.8659 26.0758 25.2622 26.0884C24.6528 26.0734 24.0488 26.2027 23.5023 26.4651C23.0211 26.7087 22.6018 27.0534 22.2748 27.4742C21.9481 27.8996 21.7054 28.3802 21.5591 28.8916C21.4055 29.4182 21.3278 29.9629 21.3284 30.5102" fill="#0F385A"/>
<path d="M40.7844 30.6543V38.8942H36.0493V22.1299H39.7404L46.6644 30.6543V22.1299H51.4004V38.8942H47.6344L40.7844 30.6543Z" fill="#0F385A"/>
<path d="M59.1024 30.6543V38.8942H54.3634V22.1299H58.0554L64.9794 30.6543V22.1299H69.7174V38.8942H65.9494L59.1024 30.6543Z" fill="#0F385A"/>
<path d="M84.9704 34.8806V38.8942H72.6784V22.1299H84.7514V26.1434H77.4164V28.5067H83.6834V32.2356H77.4164V34.8806H84.9704Z" fill="#0F385A"/>
<path d="M97.7064 26.5632C94.4534 22.3944 94.2604 22.1443 86.6864 22.1299L93.8324 30.4329L93.5184 30.7981L87.7244 37.5372L86.6864 38.736C91.4184 38.736 93.2754 38.6268 94.7934 37.5285C95.5204 37.0053 96.1744 36.2434 97.0324 35.1624C97.2454 34.895 97.4674 34.6133 97.7064 34.2999C98.5144 33.2649 99.5104 31.9998 100.838 30.4301C99.5104 28.8718 98.5174 27.5953 97.7064 26.5603" fill="#0F385A"/>
<path fill-rule="evenodd" clip-rule="evenodd" d="M98.0084 25.0627C100.22 22.4206 101.371 22.2998 108.502 22.2998L101.927 29.9272L101.847 29.8324C100.602 28.3747 99.4484 26.8855 98.2654 25.3876L98.0084 25.0627Z" fill="#ED1846"/>
<path d="M108.502 38.8941L101.85 31.166L101.696 31.3443C100.451 32.8048 99.5164 34.0037 98.7654 34.9697L98.1204 35.7891C98.0554 35.8725 97.9934 35.9501 97.9284 36.0277C100.194 38.759 101.288 38.9027 108.502 38.9027" fill="#ED1846"/>
</svg>
