<svg width="170" height="17" viewBox="0 0 170 17" fill="none" xmlns="http://www.w3.org/2000/svg">
<g clip-path="url(#clip0_202_2947)">
<mask id="mask0_202_2947" style="mask-type:luminance" maskUnits="userSpaceOnUse" x="0" y="0" width="170" height="17">
<path d="M170 0H0V17H170V0Z" fill="white"/>
</mask>
<g mask="url(#mask0_202_2947)">
<path d="M4.73537 0.118164H0V16.8824H4.73537V0.118164Z" fill="#ED1846"/>
<path d="M12.4373 8.64259V16.8824H7.69897V0.118164H11.3932L18.3144 8.64259V0.118164H23.0527V16.8824H19.2875L12.4373 8.64259Z" fill="#ED1846"/>
<path d="M26.0283 16.8824V0.118164H32.6596C34.5703 0.118164 36.1695 0.491917 37.4571 1.23942C38.709 1.95083 39.7212 3.00064 40.3705 4.26107C41.0369 5.57059 41.3744 7.015 41.3554 8.47585C41.3942 10.0214 41.0213 11.5506 40.2729 12.9148C39.5744 14.1564 38.5202 15.1741 37.2382 15.8445C35.8271 16.5619 34.2516 16.919 32.6596 16.8824H26.0283ZM36.5461 8.47585C36.5633 7.69335 36.4059 6.91652 36.0847 6.19883C35.802 5.57469 35.3372 5.04489 34.7478 4.67507C34.1206 4.30114 33.3951 4.11237 32.6596 4.13169H30.7607V12.8688H32.6567C33.4005 12.8887 34.1329 12.6881 34.7567 12.2938C35.3421 11.9057 35.8025 11.3645 36.0847 10.7327C36.4016 10.0208 36.5589 9.25146 36.5461 8.47585Z" fill="#ED1846"/>
<path d="M51.1693 17.0002C49.9465 17.0144 48.7352 16.7691 47.62 16.2815C46.5776 15.8202 45.6405 15.1614 44.8633 14.3437C44.1015 13.5468 43.4997 12.6185 43.0887 11.6067C42.6771 10.6005 42.4673 9.52705 42.4705 8.44421C42.4666 7.3496 42.6889 6.26537 43.1242 5.25581C43.5601 4.25346 44.1817 3.33743 44.958 2.55329C45.7527 1.7539 46.7028 1.11578 47.7531 0.675907C48.8744 0.210715 50.0832 -0.0223193 51.3024 -0.00834794C52.4896 -0.0258164 53.667 0.203138 54.756 0.663227C55.845 1.12331 56.8204 1.80394 57.6172 2.65967C58.374 3.46568 58.9752 4.39772 59.3918 5.41106C59.7995 6.40637 60.0092 7.4678 60.01 8.53909C60.0122 9.62432 59.793 10.6992 59.3652 11.7016C58.9385 12.7059 58.3203 13.6229 57.5432 14.4041C56.7518 15.2036 55.8073 15.8452 54.7629 16.293C53.6443 16.7677 52.4342 17.0049 51.2136 16.9887M47.271 8.50171C47.2687 9.05657 47.3505 9.60873 47.5135 10.1404C47.6671 10.6513 47.9135 11.1314 48.2411 11.5578C48.5668 11.9754 48.9867 12.3147 49.4686 12.5497C50.0238 12.7942 50.6263 12.9206 51.2358 12.9206C51.8454 12.9206 52.4479 12.7942 53.0031 12.5497C53.4945 12.303 53.916 11.9426 54.2306 11.5003C54.5479 11.0637 54.786 10.5775 54.9345 10.0628C55.0881 9.53628 55.1657 8.99154 55.1652 8.44421C55.1666 7.89319 55.0849 7.34493 54.9227 6.81695C54.7673 6.30974 54.5199 5.83362 54.1921 5.41106C53.8627 4.99406 53.4345 4.66067 52.9439 4.43931C52.3954 4.19397 51.7966 4.07305 51.1929 4.08568C50.5786 4.06833 49.9693 4.19764 49.4183 4.46231C48.9455 4.70587 48.5335 5.04742 48.2115 5.46281C47.8837 5.88752 47.6409 6.36832 47.4957 6.8802C47.3422 7.40677 47.2645 7.95151 47.265 8.49884" fill="#ED1846"/>
<path d="M61.4976 8.33756C61.498 7.30692 61.6987 6.28564 62.0891 5.32741C62.491 4.33536 63.081 3.42547 63.8283 2.64501C64.6126 1.82748 65.5595 1.17315 66.6115 0.721623C67.7785 0.226161 69.0413 -0.0199305 70.3146 -7.82078e-06C71.8211 -0.0351385 73.3112 0.310606 74.6389 1.00337C75.8019 1.60824 76.7564 2.53203 77.3837 3.65989L73.7634 6.16404C73.5899 5.66339 73.2741 5.22078 72.8524 4.88753C72.4746 4.59819 72.0412 4.3851 71.5776 4.26077C71.1376 4.14613 70.6843 4.08719 70.2289 4.0854C69.6131 4.06737 69.0027 4.20088 68.4542 4.47353C67.9741 4.72286 67.5585 5.07477 67.2386 5.50278C66.927 5.93236 66.6939 6.41085 66.5494 6.91729C66.3978 7.42364 66.3201 7.94819 66.3187 8.47556C66.3164 9.04532 66.4062 9.6119 66.5849 10.1546C66.7544 10.6748 67.0178 11.1616 67.3628 11.5921C67.6988 12.0053 68.1265 12.3394 68.6139 12.5696C69.1335 12.8108 69.7034 12.9319 70.2791 12.9232C70.7314 12.921 71.1808 12.8542 71.6131 12.7248C72.0625 12.5895 72.4797 12.3686 72.8406 12.0751C73.2289 11.7537 73.5228 11.338 73.6924 10.8704L77.5552 13.113C77.1987 13.9526 76.6101 14.68 75.8545 15.2146C75.0406 15.8061 74.1281 16.2574 73.157 16.5486C72.1914 16.85 71.1839 17.0052 70.1697 17.0086C68.9567 17.0229 67.7563 16.7693 66.6588 16.2669C65.6198 15.7856 64.6874 15.1117 63.914 14.2831C63.1565 13.4646 62.5555 12.5212 62.1394 11.4972C61.7239 10.4917 61.5101 9.41825 61.5094 8.33468" fill="#0F385A"/>
<path d="M86.7361 17C85.5063 17.017 84.2877 16.7717 83.1661 16.2812C82.1238 15.8199 81.1866 15.1611 80.4095 14.3434C79.6477 13.5465 79.0458 12.6182 78.6348 11.6064C78.2232 10.6002 78.0134 9.52673 78.0166 8.44389C78.0158 7.35179 78.2401 6.27059 78.6762 5.26412C79.1122 4.26177 79.7337 3.34574 80.51 2.5616C81.3048 1.76221 82.2548 1.12408 83.3051 0.684208C84.4201 0.221751 85.6215 -0.0112268 86.8337 -4.71526e-05C88.021 -0.0175156 89.1984 0.211439 90.2873 0.671528C91.3763 1.13162 92.3517 1.81225 93.1485 2.66797C93.9064 3.47322 94.5077 4.40545 94.9232 5.41937C95.3288 6.41506 95.5366 7.47648 95.5354 8.54739C95.5376 9.63263 95.3185 10.7075 94.8906 11.7099C94.4639 12.7143 93.8457 13.6312 93.0687 14.4124C92.2772 15.2119 91.3328 15.8536 90.2884 16.3013C89.1697 16.7761 87.9596 17.0133 86.7391 16.9971M82.8171 8.50139C82.8149 9.05625 82.8966 9.60841 83.0596 10.1402C83.2132 10.651 83.4596 11.1311 83.7872 11.5575C84.1129 11.9751 84.5328 12.3144 85.0147 12.5494C85.5719 12.796 86.1771 12.9236 86.7893 12.9236C87.4016 12.9236 88.0068 12.796 88.564 12.5494C89.0533 12.3019 89.4727 11.9416 89.7856 11.5C90.1029 11.0634 90.341 10.5772 90.4895 10.0625C90.6431 9.53596 90.7207 8.99122 90.7202 8.44389C90.7216 7.89286 90.6399 7.34461 90.4777 6.81663C90.3223 6.30942 90.0749 5.8333 89.7471 5.41074C89.4221 4.99204 88.998 4.65573 88.5108 4.43036C87.9622 4.18503 87.3635 4.06411 86.7598 4.07673C86.1504 4.06173 85.5464 4.19099 84.9999 4.45336C84.5187 4.69696 84.0994 5.04169 83.7724 5.46249C83.4457 5.88787 83.203 6.36846 83.0567 6.87988C82.9031 7.40645 82.8254 7.95119 82.826 8.49852" fill="#0F385A"/>
<path d="M102.282 8.64259V16.8824H97.5469V0.118164H101.238L108.162 8.64259V0.118164H112.898V16.8824H109.132L102.282 8.64259Z" fill="#0F385A"/>
<path d="M120.6 8.64259V16.8824H115.861V0.118164H119.553L126.477 8.64259V0.118164H131.215V16.8824H127.447L120.6 8.64259Z" fill="#0F385A"/>
<path d="M146.468 12.8688V16.8824H134.176V0.118164H146.249V4.13169H138.914V6.49495H145.181V10.2238H138.914V12.8688H146.468Z" fill="#0F385A"/>
<path d="M159.204 4.55144C155.951 0.382666 155.758 0.132539 148.184 0.118164L155.33 8.42122L155.016 8.78635L149.222 15.5254L148.184 16.7242C152.916 16.7242 154.773 16.615 156.291 15.5167C157.018 14.9935 157.672 14.2316 158.53 13.1506C158.743 12.8832 158.965 12.6015 159.204 12.2881C160.012 11.2531 161.008 9.98811 162.336 8.41835C161.008 6.86009 160.015 5.58358 159.204 4.54857" fill="#0F385A"/>
<path fill-rule="evenodd" clip-rule="evenodd" d="M159.506 3.05098C161.718 0.408837 162.869 0.288086 170 0.288086L163.425 7.91552L163.345 7.82064C162.1 6.36301 160.946 4.87374 159.763 3.37586L159.506 3.05098Z" fill="#ED1846"/>
<path d="M170 16.8823L163.348 9.1543L163.194 9.33255C161.949 10.793 161.014 11.9919 160.263 12.9579L159.618 13.7773C159.553 13.8607 159.491 13.9383 159.426 14.0159C161.692 16.7472 162.786 16.8909 170 16.8909" fill="#ED1846"/>
</g>
</g>
<defs>
<clipPath id="clip0_202_2947">
<rect width="170" height="17" fill="white"/>
</clipPath>
</defs>
</svg>
